<?xml version="1.0" encoding="UTF-8"?><svg xmlns="http://www.w3.org/2000/svg" xmlns:xlink="http://www.w3.org/1999/xlink" fill-opacity="1" color-rendering="auto" color-interpolation="auto" text-rendering="auto" stroke="black" stroke-linecap="square" width="531" stroke-miterlimit="10" shape-rendering="auto" stroke-opacity="1" fill="black" stroke-dasharray="none" font-weight="normal" stroke-width="1" height="235" font-family="'Dialog'" font-style="normal" stroke-linejoin="miter" font-size="12px" stroke-dashoffset="0" image-rendering="auto">
  <!--Generated by ySVG 2.5-->
  <defs id="genericDefs"/>
  <g>
    <defs id="defs1">
      <clipPath clipPathUnits="userSpaceOnUse" id="clipPath1">
        <path d="M0 0 L531 0 L531 235 L0 235 L0 0 Z"/>
      </clipPath>
      <clipPath clipPathUnits="userSpaceOnUse" id="clipPath2">
        <path d="M203 71 L734 71 L734 306 L203 306 L203 71 Z"/>
      </clipPath>
    </defs>
    <g fill="rgb(153,204,255)" text-rendering="geometricPrecision" shape-rendering="geometricPrecision" transform="matrix(1,0,0,1,-203,-71)" stroke="rgb(153,204,255)">
      <rect x="667" width="52" height="75" y="215.816" clip-path="url(#clipPath2)" stroke="none"/>
    </g>
    <g text-rendering="geometricPrecision" stroke-miterlimit="1.45" shape-rendering="geometricPrecision" transform="matrix(1,0,0,1,-203,-71)" stroke-linecap="butt">
      <rect fill="none" x="667" width="52" height="75" y="215.816" clip-path="url(#clipPath2)"/>
      <text x="689.1826" xml:space="preserve" y="257.4703" clip-path="url(#clipPath2)" font-family="sans-serif" stroke="none">1</text>
    </g>
    <g fill="rgb(153,204,255)" text-rendering="geometricPrecision" shape-rendering="geometricPrecision" transform="matrix(1,0,0,1,-203,-71)" stroke="rgb(153,204,255)">
      <rect x="603" width="52" height="75" y="215.816" clip-path="url(#clipPath2)" stroke="none"/>
    </g>
    <g text-rendering="geometricPrecision" stroke-miterlimit="1.45" shape-rendering="geometricPrecision" transform="matrix(1,0,0,1,-203,-71)" stroke-linecap="butt">
      <rect fill="none" x="603" width="52" height="75" y="215.816" clip-path="url(#clipPath2)"/>
      <text x="625.1826" xml:space="preserve" y="257.4703" clip-path="url(#clipPath2)" font-family="sans-serif" stroke="none">2</text>
    </g>
    <g fill="rgb(153,204,255)" text-rendering="geometricPrecision" shape-rendering="geometricPrecision" transform="matrix(1,0,0,1,-203,-71)" stroke="rgb(153,204,255)">
      <rect x="411" width="52" height="75" y="215.816" clip-path="url(#clipPath2)" stroke="none"/>
    </g>
    <g text-rendering="geometricPrecision" stroke-miterlimit="1.45" shape-rendering="geometricPrecision" transform="matrix(1,0,0,1,-203,-71)" stroke-linecap="butt">
      <rect fill="none" x="411" width="52" height="75" y="215.816" clip-path="url(#clipPath2)"/>
      <text x="433.1826" xml:space="preserve" y="257.4703" clip-path="url(#clipPath2)" font-family="sans-serif" stroke="none">3</text>
    </g>
    <g fill="rgb(153,204,255)" text-rendering="geometricPrecision" shape-rendering="geometricPrecision" transform="matrix(1,0,0,1,-203,-71)" stroke="rgb(153,204,255)">
      <rect x="347" width="52" height="75" y="215.816" clip-path="url(#clipPath2)" stroke="none"/>
    </g>
    <g text-rendering="geometricPrecision" stroke-miterlimit="1.45" shape-rendering="geometricPrecision" transform="matrix(1,0,0,1,-203,-71)" stroke-linecap="butt">
      <rect fill="none" x="347" width="52" height="75" y="215.816" clip-path="url(#clipPath2)"/>
      <text x="369.1826" xml:space="preserve" y="257.4703" clip-path="url(#clipPath2)" font-family="sans-serif" stroke="none">4</text>
    </g>
    <g fill="rgb(153,204,255)" text-rendering="geometricPrecision" shape-rendering="geometricPrecision" transform="matrix(1,0,0,1,-203,-71)" stroke="rgb(153,204,255)">
      <rect x="219" width="52" height="75" y="215.816" clip-path="url(#clipPath2)" stroke="none"/>
    </g>
    <g text-rendering="geometricPrecision" stroke-miterlimit="1.45" shape-rendering="geometricPrecision" transform="matrix(1,0,0,1,-203,-71)" stroke-linecap="butt">
      <rect fill="none" x="219" width="52" height="75" y="215.816" clip-path="url(#clipPath2)"/>
      <text x="241.1826" xml:space="preserve" y="257.4703" clip-path="url(#clipPath2)" font-family="sans-serif" stroke="none">6</text>
    </g>
    <g fill="rgb(153,204,255)" text-rendering="geometricPrecision" shape-rendering="geometricPrecision" transform="matrix(1,0,0,1,-203,-71)" stroke="rgb(153,204,255)">
      <rect x="475" width="52" height="75" y="215.816" clip-path="url(#clipPath2)" stroke="none"/>
    </g>
    <g text-rendering="geometricPrecision" stroke-miterlimit="1.45" shape-rendering="geometricPrecision" transform="matrix(1,0,0,1,-203,-71)" stroke-linecap="butt">
      <rect fill="none" x="475" width="52" height="75" y="215.816" clip-path="url(#clipPath2)"/>
      <text x="497.1826" xml:space="preserve" y="257.4703" clip-path="url(#clipPath2)" font-family="sans-serif" stroke="none">7</text>
    </g>
    <g fill="rgb(153,204,255)" text-rendering="geometricPrecision" shape-rendering="geometricPrecision" transform="matrix(1,0,0,1,-203,-71)" stroke="rgb(153,204,255)">
      <rect x="539" width="52" height="75" y="215.816" clip-path="url(#clipPath2)" stroke="none"/>
    </g>
    <g text-rendering="geometricPrecision" stroke-miterlimit="1.45" shape-rendering="geometricPrecision" transform="matrix(1,0,0,1,-203,-71)" stroke-linecap="butt">
      <rect fill="none" x="539" width="52" height="75" y="215.816" clip-path="url(#clipPath2)"/>
      <text x="561.1826" xml:space="preserve" y="257.4703" clip-path="url(#clipPath2)" font-family="sans-serif" stroke="none">8</text>
    </g>
    <g fill="rgb(153,204,255)" text-rendering="geometricPrecision" shape-rendering="geometricPrecision" transform="matrix(1,0,0,1,-203,-71)" stroke="rgb(153,204,255)">
      <rect x="283" width="52" height="75" y="215.816" clip-path="url(#clipPath2)" stroke="none"/>
    </g>
    <g text-rendering="geometricPrecision" stroke-miterlimit="1.45" shape-rendering="geometricPrecision" transform="matrix(1,0,0,1,-203,-71)" stroke-linecap="butt">
      <rect fill="none" x="283" width="52" height="75" y="215.816" clip-path="url(#clipPath2)"/>
      <text x="305.1826" xml:space="preserve" y="257.4703" clip-path="url(#clipPath2)" font-family="sans-serif" stroke="none">5</text>
    </g>
    <g fill="rgb(153,204,255)" text-rendering="geometricPrecision" shape-rendering="geometricPrecision" transform="matrix(1,0,0,1,-203,-71)" stroke="rgb(153,204,255)">
      <rect x="667" width="52" height="75" y="86.496" clip-path="url(#clipPath2)" stroke="none"/>
    </g>
    <g text-rendering="geometricPrecision" stroke-miterlimit="1.45" shape-rendering="geometricPrecision" transform="matrix(1,0,0,1,-203,-71)" stroke-linecap="butt">
      <rect fill="none" x="667" width="52" height="75" y="86.496" clip-path="url(#clipPath2)"/>
      <text x="689.1826" xml:space="preserve" y="128.1503" clip-path="url(#clipPath2)" font-family="sans-serif" stroke="none">8</text>
    </g>
    <g fill="rgb(153,204,255)" text-rendering="geometricPrecision" shape-rendering="geometricPrecision" transform="matrix(1,0,0,1,-203,-71)" stroke="rgb(153,204,255)">
      <rect x="603" width="52" height="75" y="86.496" clip-path="url(#clipPath2)" stroke="none"/>
    </g>
    <g text-rendering="geometricPrecision" stroke-miterlimit="1.45" shape-rendering="geometricPrecision" transform="matrix(1,0,0,1,-203,-71)" stroke-linecap="butt">
      <rect fill="none" x="603" width="52" height="75" y="86.496" clip-path="url(#clipPath2)"/>
      <text x="625.1826" xml:space="preserve" y="128.1503" clip-path="url(#clipPath2)" font-family="sans-serif" stroke="none">7</text>
    </g>
    <g fill="rgb(153,204,255)" text-rendering="geometricPrecision" shape-rendering="geometricPrecision" transform="matrix(1,0,0,1,-203,-71)" stroke="rgb(153,204,255)">
      <rect x="411" width="52" height="75" y="86.496" clip-path="url(#clipPath2)" stroke="none"/>
    </g>
    <g text-rendering="geometricPrecision" stroke-miterlimit="1.45" shape-rendering="geometricPrecision" transform="matrix(1,0,0,1,-203,-71)" stroke-linecap="butt">
      <rect fill="none" x="411" width="52" height="75" y="86.496" clip-path="url(#clipPath2)"/>
      <text x="433.1826" xml:space="preserve" y="128.1503" clip-path="url(#clipPath2)" font-family="sans-serif" stroke="none">4</text>
    </g>
    <g fill="rgb(153,204,255)" text-rendering="geometricPrecision" shape-rendering="geometricPrecision" transform="matrix(1,0,0,1,-203,-71)" stroke="rgb(153,204,255)">
      <rect x="347" width="52" height="75" y="86.496" clip-path="url(#clipPath2)" stroke="none"/>
    </g>
    <g text-rendering="geometricPrecision" stroke-miterlimit="1.45" shape-rendering="geometricPrecision" transform="matrix(1,0,0,1,-203,-71)" stroke-linecap="butt">
      <rect fill="none" x="347" width="52" height="75" y="86.496" clip-path="url(#clipPath2)"/>
      <text x="369.1826" xml:space="preserve" y="128.1503" clip-path="url(#clipPath2)" font-family="sans-serif" stroke="none">3</text>
    </g>
    <g fill="rgb(153,204,255)" text-rendering="geometricPrecision" shape-rendering="geometricPrecision" transform="matrix(1,0,0,1,-203,-71)" stroke="rgb(153,204,255)">
      <rect x="219" width="52" height="75" y="86.496" clip-path="url(#clipPath2)" stroke="none"/>
    </g>
    <g text-rendering="geometricPrecision" stroke-miterlimit="1.45" shape-rendering="geometricPrecision" transform="matrix(1,0,0,1,-203,-71)" stroke-linecap="butt">
      <rect fill="none" x="219" width="52" height="75" y="86.496" clip-path="url(#clipPath2)"/>
      <text x="241.1826" xml:space="preserve" y="128.1503" clip-path="url(#clipPath2)" font-family="sans-serif" stroke="none">1</text>
    </g>
    <g fill="rgb(153,204,255)" text-rendering="geometricPrecision" shape-rendering="geometricPrecision" transform="matrix(1,0,0,1,-203,-71)" stroke="rgb(153,204,255)">
      <rect x="475" width="52" height="75" y="86.496" clip-path="url(#clipPath2)" stroke="none"/>
    </g>
    <g text-rendering="geometricPrecision" stroke-miterlimit="1.45" shape-rendering="geometricPrecision" transform="matrix(1,0,0,1,-203,-71)" stroke-linecap="butt">
      <rect fill="none" x="475" width="52" height="75" y="86.496" clip-path="url(#clipPath2)"/>
      <text x="497.1826" xml:space="preserve" y="128.1503" clip-path="url(#clipPath2)" font-family="sans-serif" stroke="none">5</text>
    </g>
    <g fill="rgb(153,204,255)" text-rendering="geometricPrecision" shape-rendering="geometricPrecision" transform="matrix(1,0,0,1,-203,-71)" stroke="rgb(153,204,255)">
      <rect x="539" width="52" height="75" y="86.496" clip-path="url(#clipPath2)" stroke="none"/>
    </g>
    <g text-rendering="geometricPrecision" stroke-miterlimit="1.45" shape-rendering="geometricPrecision" transform="matrix(1,0,0,1,-203,-71)" stroke-linecap="butt">
      <rect fill="none" x="539" width="52" height="75" y="86.496" clip-path="url(#clipPath2)"/>
      <text x="561.1826" xml:space="preserve" y="128.1503" clip-path="url(#clipPath2)" font-family="sans-serif" stroke="none">6</text>
    </g>
    <g fill="rgb(153,204,255)" text-rendering="geometricPrecision" shape-rendering="geometricPrecision" transform="matrix(1,0,0,1,-203,-71)" stroke="rgb(153,204,255)">
      <rect x="283" width="52" height="75" y="86.496" clip-path="url(#clipPath2)" stroke="none"/>
    </g>
    <g text-rendering="geometricPrecision" stroke-miterlimit="1.45" shape-rendering="geometricPrecision" transform="matrix(1,0,0,1,-203,-71)" stroke-linecap="butt">
      <rect fill="none" x="283" width="52" height="75" y="86.496" clip-path="url(#clipPath2)"/>
      <text x="305.1826" xml:space="preserve" y="128.1503" clip-path="url(#clipPath2)" font-family="sans-serif" stroke="none">2</text>
      <path fill="none" d="M693 161.496 L573.3161 212.2869" stroke-width="2" clip-path="url(#clipPath2)" stroke="rgb(204,255,255)"/>
      <path fill="rgb(204,255,255)" d="M565.0312 215.8027 L579.6559 215.707 L574.3517 211.8474 L575.2611 205.3509 Z" stroke-width="2" clip-path="url(#clipPath2)" stroke="none"/>
      <path fill="none" d="M629 161.496 L509.3161 212.2869" stroke-width="2" clip-path="url(#clipPath2)" stroke="rgb(204,255,255)"/>
      <path fill="rgb(204,255,255)" d="M501.0312 215.8027 L515.6559 215.707 L510.3517 211.8474 L511.2611 205.3509 Z" stroke-width="2" clip-path="url(#clipPath2)" stroke="none"/>
      <path fill="none" d="M437 161.496 L379.8929 209.9656" stroke-width="2" clip-path="url(#clipPath2)" stroke="rgb(204,255,255)"/>
      <path fill="rgb(204,255,255)" d="M373.0312 215.7895 L386.9637 211.3423 L380.7506 209.2376 L379.6839 202.7652 Z" stroke-width="2" clip-path="url(#clipPath2)" stroke="none"/>
      <path fill="none" d="M373 161.496 L430.1071 209.9656" stroke-width="2" clip-path="url(#clipPath2)" stroke="rgb(204,255,255)"/>
      <path fill="rgb(204,255,255)" d="M436.9688 215.7895 L430.3161 202.7652 L429.2494 209.2376 L423.0363 211.3423 Z" stroke-width="2" clip-path="url(#clipPath2)" stroke="none"/>
      <path fill="none" d="M245 161.496 L684.0381 214.7294" stroke-width="2" clip-path="url(#clipPath2)" stroke="rgb(204,255,255)"/>
      <path fill="rgb(204,255,255)" d="M692.9727 215.8127 L680.2479 208.6036 L682.9213 214.594 L678.8937 219.7718 Z" stroke-width="2" clip-path="url(#clipPath2)" stroke="none"/>
      <path fill="none" d="M501 161.496 L317.707 213.3527" stroke-width="2" clip-path="url(#clipPath2)" stroke="rgb(204,255,255)"/>
      <path fill="rgb(204,255,255)" d="M309.0469 215.8027 L323.5683 217.5402 L318.7895 213.0464 L320.5057 206.7151 Z" stroke-width="2" clip-path="url(#clipPath2)" stroke="none"/>
      <path fill="none" d="M565 161.496 L253.9121 214.3032" stroke-width="2" clip-path="url(#clipPath2)" stroke="rgb(204,255,255)"/>
      <path fill="rgb(204,255,255)" d="M245.0391 215.8094 L259.29 219.0957 L255.0213 214.1149 L257.4073 208.0044 Z" stroke-width="2" clip-path="url(#clipPath2)" stroke="none"/>
      <path fill="none" d="M309 161.496 L620.0879 214.3032" stroke-width="2" clip-path="url(#clipPath2)" stroke="rgb(204,255,255)"/>
      <path fill="rgb(204,255,255)" d="M628.9609 215.8094 L616.5927 208.0044 L618.9788 214.1149 L614.71 219.0957 Z" stroke-width="2" clip-path="url(#clipPath2)" stroke="none"/>
    </g>
  </g>
</svg>
