<?xml version="1.0" encoding="UTF-8"?><svg xmlns="http://www.w3.org/2000/svg" xmlns:xlink="http://www.w3.org/1999/xlink" fill-opacity="1" color-rendering="auto" color-interpolation="auto" text-rendering="auto" stroke="black" stroke-linecap="square" width="525" stroke-miterlimit="10" shape-rendering="auto" stroke-opacity="1" fill="black" stroke-dasharray="none" font-weight="normal" stroke-width="1" height="105" font-family="'Dialog'" font-style="normal" stroke-linejoin="miter" font-size="12px" stroke-dashoffset="0" image-rendering="auto">
  <!--Generated by ySVG 2.5-->
  <defs id="genericDefs"/>
  <g>
    <defs id="defs1">
      <clipPath clipPathUnits="userSpaceOnUse" id="clipPath1">
        <path d="M0 0 L525 0 L525 105 L0 105 L0 0 Z"/>
      </clipPath>
      <clipPath clipPathUnits="userSpaceOnUse" id="clipPath2">
        <path d="M204 294 L729 294 L729 399 L204 399 L204 294 Z"/>
      </clipPath>
    </defs>
    <g fill="rgb(153,204,255)" text-rendering="geometricPrecision" shape-rendering="geometricPrecision" transform="matrix(1,0,0,1,-204,-294)" stroke="rgb(153,204,255)">
      <rect x="219" width="52" height="75" y="309" clip-path="url(#clipPath2)" stroke="none"/>
    </g>
    <g text-rendering="geometricPrecision" stroke-miterlimit="1.45" shape-rendering="geometricPrecision" transform="matrix(1,0,0,1,-204,-294)" stroke-linecap="butt">
      <rect fill="none" x="219" width="52" height="75" y="309" clip-path="url(#clipPath2)"/>
      <text x="241.1826" xml:space="preserve" y="350.6543" clip-path="url(#clipPath2)" font-family="sans-serif" stroke="none">1</text>
    </g>
    <g fill="rgb(153,204,255)" text-rendering="geometricPrecision" shape-rendering="geometricPrecision" transform="matrix(1,0,0,1,-204,-294)" stroke="rgb(153,204,255)">
      <rect x="283" width="52" height="75" y="309" clip-path="url(#clipPath2)" stroke="none"/>
    </g>
    <g text-rendering="geometricPrecision" stroke-miterlimit="1.45" shape-rendering="geometricPrecision" transform="matrix(1,0,0,1,-204,-294)" stroke-linecap="butt">
      <rect fill="none" x="283" width="52" height="75" y="309" clip-path="url(#clipPath2)"/>
      <text x="305.1826" xml:space="preserve" y="350.6543" clip-path="url(#clipPath2)" font-family="sans-serif" stroke="none">2</text>
    </g>
    <g fill="rgb(153,204,255)" text-rendering="geometricPrecision" shape-rendering="geometricPrecision" transform="matrix(1,0,0,1,-204,-294)" stroke="rgb(153,204,255)">
      <rect x="347" width="52" height="75" y="309" clip-path="url(#clipPath2)" stroke="none"/>
    </g>
    <g text-rendering="geometricPrecision" stroke-miterlimit="1.45" shape-rendering="geometricPrecision" transform="matrix(1,0,0,1,-204,-294)" stroke-linecap="butt">
      <rect fill="none" x="347" width="52" height="75" y="309" clip-path="url(#clipPath2)"/>
      <text x="369.1826" xml:space="preserve" y="350.6543" clip-path="url(#clipPath2)" font-family="sans-serif" stroke="none">3</text>
    </g>
    <g fill="rgb(153,204,255)" text-rendering="geometricPrecision" shape-rendering="geometricPrecision" transform="matrix(1,0,0,1,-204,-294)" stroke="rgb(153,204,255)">
      <rect x="410" width="52" height="75" y="309" clip-path="url(#clipPath2)" stroke="none"/>
    </g>
    <g text-rendering="geometricPrecision" stroke-miterlimit="1.45" shape-rendering="geometricPrecision" transform="matrix(1,0,0,1,-204,-294)" stroke-linecap="butt">
      <rect fill="none" x="410" width="52" height="75" y="309" clip-path="url(#clipPath2)"/>
      <text x="432.1826" xml:space="preserve" y="350.6543" clip-path="url(#clipPath2)" font-family="sans-serif" stroke="none">4</text>
    </g>
    <g fill="rgb(153,204,255)" text-rendering="geometricPrecision" shape-rendering="geometricPrecision" transform="matrix(1,0,0,1,-204,-294)" stroke="rgb(153,204,255)">
      <rect x="473" width="52" height="75" y="309" clip-path="url(#clipPath2)" stroke="none"/>
    </g>
    <g text-rendering="geometricPrecision" stroke-miterlimit="1.45" shape-rendering="geometricPrecision" transform="matrix(1,0,0,1,-204,-294)" stroke-linecap="butt">
      <rect fill="none" x="473" width="52" height="75" y="309" clip-path="url(#clipPath2)"/>
      <text x="495.1826" xml:space="preserve" y="350.6543" clip-path="url(#clipPath2)" font-family="sans-serif" stroke="none">5</text>
    </g>
    <g fill="rgb(153,204,255)" text-rendering="geometricPrecision" shape-rendering="geometricPrecision" transform="matrix(1,0,0,1,-204,-294)" stroke="rgb(153,204,255)">
      <rect x="536" width="52" height="75" y="309" clip-path="url(#clipPath2)" stroke="none"/>
    </g>
    <g text-rendering="geometricPrecision" stroke-miterlimit="1.45" shape-rendering="geometricPrecision" transform="matrix(1,0,0,1,-204,-294)" stroke-linecap="butt">
      <rect fill="none" x="536" width="52" height="75" y="309" clip-path="url(#clipPath2)"/>
      <text x="558.1826" xml:space="preserve" y="350.6543" clip-path="url(#clipPath2)" font-family="sans-serif" stroke="none">6</text>
    </g>
    <g fill="rgb(153,204,255)" text-rendering="geometricPrecision" shape-rendering="geometricPrecision" transform="matrix(1,0,0,1,-204,-294)" stroke="rgb(153,204,255)">
      <rect x="599" width="52" height="75" y="309" clip-path="url(#clipPath2)" stroke="none"/>
    </g>
    <g text-rendering="geometricPrecision" stroke-miterlimit="1.45" shape-rendering="geometricPrecision" transform="matrix(1,0,0,1,-204,-294)" stroke-linecap="butt">
      <rect fill="none" x="599" width="52" height="75" y="309" clip-path="url(#clipPath2)"/>
      <text x="621.1826" xml:space="preserve" y="350.6543" clip-path="url(#clipPath2)" font-family="sans-serif" stroke="none">7</text>
    </g>
    <g fill="rgb(153,204,255)" text-rendering="geometricPrecision" shape-rendering="geometricPrecision" transform="matrix(1,0,0,1,-204,-294)" stroke="rgb(153,204,255)">
      <rect x="662" width="52" height="75" y="309" clip-path="url(#clipPath2)" stroke="none"/>
    </g>
    <g text-rendering="geometricPrecision" stroke-miterlimit="1.45" shape-rendering="geometricPrecision" transform="matrix(1,0,0,1,-204,-294)" stroke-linecap="butt">
      <rect fill="none" x="662" width="52" height="75" y="309" clip-path="url(#clipPath2)"/>
      <text x="684.1826" xml:space="preserve" y="350.6543" clip-path="url(#clipPath2)" font-family="sans-serif" stroke="none">8</text>
    </g>
  </g>
</svg>
